<svg width="241" height="101" viewBox="0 0 241 101" fill="none" xmlns="http://www.w3.org/2000/svg">
<path d="M80.8804 50.468C80.8804 50.948 80.971 51.3907 81.1524 51.796C81.3337 52.2013 81.579 52.5533 81.8884 52.852C82.1977 53.1507 82.555 53.3853 82.9604 53.556C83.3764 53.716 83.8137 53.796 84.2724 53.796C84.731 53.796 85.163 53.716 85.5684 53.556C85.9844 53.3853 86.347 53.1507 86.6564 52.852C86.9764 52.5533 87.227 52.2013 87.4084 51.796C87.5897 51.3907 87.6804 50.948 87.6804 50.468C87.6804 49.988 87.5897 49.5453 87.4084 49.14C87.227 48.7347 86.9764 48.3827 86.6564 48.084C86.347 47.7853 85.9844 47.556 85.5684 47.396C85.163 47.2253 84.731 47.14 84.2724 47.14C83.8137 47.14 83.3764 47.2253 82.9604 47.396C82.555 47.556 82.1977 47.7853 81.8884 48.084C81.579 48.3827 81.3337 48.7347 81.1524 49.14C80.971 49.5453 80.8804 49.988 80.8804 50.468ZM77.6004 50.468C77.6004 49.572 77.7657 48.74 78.0964 47.972C78.427 47.1933 78.8857 46.516 79.4724 45.94C80.059 45.364 80.7577 44.916 81.5684 44.596C82.3897 44.2653 83.291 44.1 84.2724 44.1C85.243 44.1 86.139 44.2653 86.9604 44.596C87.7817 44.916 88.4857 45.364 89.0724 45.94C89.6697 46.516 90.1337 47.1933 90.4644 47.972C90.795 48.74 90.9604 49.572 90.9604 50.468C90.9604 51.364 90.795 52.2013 90.4644 52.98C90.1337 53.748 89.6697 54.42 89.0724 54.996C88.4857 55.572 87.7817 56.0253 86.9604 56.356C86.139 56.676 85.243 56.836 84.2724 56.836C83.291 56.836 82.3897 56.676 81.5684 56.356C80.7577 56.0253 80.059 55.572 79.4724 54.996C78.8857 54.42 78.427 53.748 78.0964 52.98C77.7657 52.2013 77.6004 51.364 77.6004 50.468ZM97.9172 50.468C97.9172 50.948 98.0079 51.3907 98.1892 51.796C98.3706 52.2013 98.6159 52.5533 98.9252 52.852C99.2346 53.1507 99.5919 53.3853 99.9972 53.556C100.413 53.716 100.851 53.796 101.309 53.796C101.768 53.796 102.2 53.716 102.605 53.556C103.021 53.3853 103.384 53.1507 103.693 52.852C104.013 52.5533 104.264 52.2013 104.445 51.796C104.627 51.3907 104.717 50.948 104.717 50.468C104.717 49.988 104.627 49.5453 104.445 49.14C104.264 48.7347 104.013 48.3827 103.693 48.084C103.384 47.7853 103.021 47.556 102.605 47.396C102.2 47.2253 101.768 47.14 101.309 47.14C100.851 47.14 100.413 47.2253 99.9972 47.396C99.5919 47.556 99.2346 47.7853 98.9252 48.084C98.6159 48.3827 98.3706 48.7347 98.1892 49.14C98.0079 49.5453 97.9172 49.988 97.9172 50.468ZM94.6372 50.468C94.6372 49.572 94.8026 48.74 95.1332 47.972C95.4639 47.1933 95.9226 46.516 96.5092 45.94C97.0959 45.364 97.7946 44.916 98.6052 44.596C99.4266 44.2653 100.328 44.1 101.309 44.1C102.28 44.1 103.176 44.2653 103.997 44.596C104.819 44.916 105.523 45.364 106.109 45.94C106.707 46.516 107.171 47.1933 107.501 47.972C107.832 48.74 107.997 49.572 107.997 50.468C107.997 51.364 107.832 52.2013 107.501 52.98C107.171 53.748 106.707 54.42 106.109 54.996C105.523 55.572 104.819 56.0253 103.997 56.356C103.176 56.676 102.28 56.836 101.309 56.836C100.328 56.836 99.4266 56.676 98.6052 56.356C97.7946 56.0253 97.0959 55.572 96.5092 54.996C95.9226 54.42 95.4639 53.748 95.1332 52.98C94.8026 52.2013 94.6372 51.364 94.6372 50.468ZM115.354 49.412L119.178 44.436H123.05L118.266 50.148L123.498 56.5H119.434L115.354 51.268V56.5H112.218V44.436H115.354V49.412ZM133.754 47.524C133.413 47.2467 133.071 47.044 132.73 46.916C132.389 46.7773 132.058 46.708 131.738 46.708C131.333 46.708 131.002 46.804 130.746 46.996C130.49 47.188 130.362 47.4387 130.362 47.748C130.362 47.9613 130.426 48.1373 130.554 48.276C130.682 48.4147 130.847 48.5373 131.05 48.644C131.263 48.74 131.498 48.8253 131.754 48.9C132.021 48.9747 132.282 49.0547 132.538 49.14C133.562 49.4813 134.309 49.94 134.778 50.516C135.258 51.0813 135.498 51.8227 135.498 52.74C135.498 53.3587 135.391 53.9187 135.178 54.42C134.975 54.9213 134.671 55.3533 134.266 55.716C133.871 56.068 133.381 56.34 132.794 56.532C132.218 56.7347 131.562 56.836 130.826 56.836C129.301 56.836 127.887 56.3827 126.586 55.476L127.93 52.948C128.399 53.364 128.863 53.6733 129.322 53.876C129.781 54.0787 130.234 54.18 130.682 54.18C131.194 54.18 131.573 54.0627 131.818 53.828C132.074 53.5933 132.202 53.3267 132.202 53.028C132.202 52.8467 132.17 52.692 132.106 52.564C132.042 52.4253 131.935 52.3027 131.786 52.196C131.637 52.0787 131.439 51.972 131.194 51.876C130.959 51.78 130.671 51.6733 130.33 51.556C129.925 51.428 129.525 51.2893 129.13 51.14C128.746 50.98 128.399 50.772 128.09 50.516C127.791 50.26 127.546 49.94 127.354 49.556C127.173 49.1613 127.082 48.6653 127.082 48.068C127.082 47.4707 127.178 46.932 127.37 46.452C127.573 45.9613 127.85 45.5453 128.202 45.204C128.565 44.852 129.002 44.58 129.514 44.388C130.037 44.196 130.618 44.1 131.258 44.1C131.855 44.1 132.479 44.1853 133.13 44.356C133.781 44.516 134.405 44.756 135.002 45.076L133.754 47.524ZM142.85 49.092H147.378V44.436H150.514V56.5H147.378V51.524H142.85V56.5H139.714V44.436H142.85V49.092ZM162.146 47.092H158.418V49.108H161.938V51.764H158.418V53.844H162.146V56.5H155.282V44.436H162.146V47.092ZM169.783 44.436V53.844H173.543V56.5H166.647V44.436H169.783ZM184.314 47.092H180.538V49.108H183.978V51.764H180.538V56.5H177.402V44.436H184.314V47.092ZM187.476 54.964C187.476 54.708 187.524 54.468 187.62 54.244C187.716 54.0093 187.85 53.8067 188.02 53.636C188.191 53.4653 188.388 53.332 188.612 53.236C188.847 53.14 189.092 53.092 189.348 53.092C189.604 53.092 189.844 53.14 190.068 53.236C190.303 53.332 190.506 53.4653 190.676 53.636C190.847 53.8067 190.98 54.0093 191.076 54.244C191.172 54.468 191.22 54.708 191.22 54.964C191.22 55.22 191.172 55.4653 191.076 55.7C190.98 55.924 190.847 56.1213 190.676 56.292C190.506 56.4627 190.303 56.596 190.068 56.692C189.844 56.788 189.604 56.836 189.348 56.836C189.092 56.836 188.847 56.788 188.612 56.692C188.388 56.596 188.191 56.4627 188.02 56.292C187.85 56.1213 187.716 55.924 187.62 55.7C187.524 55.4653 187.476 55.22 187.476 54.964ZM198.706 44.436V56.5H195.57V44.436H198.706ZM206.202 50.468C206.202 50.948 206.293 51.3907 206.474 51.796C206.656 52.2013 206.901 52.5533 207.21 52.852C207.52 53.1507 207.877 53.3853 208.282 53.556C208.698 53.716 209.136 53.796 209.594 53.796C210.053 53.796 210.485 53.716 210.89 53.556C211.306 53.3853 211.669 53.1507 211.978 52.852C212.298 52.5533 212.549 52.2013 212.73 51.796C212.912 51.3907 213.002 50.948 213.002 50.468C213.002 49.988 212.912 49.5453 212.73 49.14C212.549 48.7347 212.298 48.3827 211.978 48.084C211.669 47.7853 211.306 47.556 210.89 47.396C210.485 47.2253 210.053 47.14 209.594 47.14C209.136 47.14 208.698 47.2253 208.282 47.396C207.877 47.556 207.52 47.7853 207.21 48.084C206.901 48.3827 206.656 48.7347 206.474 49.14C206.293 49.5453 206.202 49.988 206.202 50.468ZM202.922 50.468C202.922 49.572 203.088 48.74 203.418 47.972C203.749 47.1933 204.208 46.516 204.794 45.94C205.381 45.364 206.08 44.916 206.89 44.596C207.712 44.2653 208.613 44.1 209.594 44.1C210.565 44.1 211.461 44.2653 212.282 44.596C213.104 44.916 213.808 45.364 214.394 45.94C214.992 46.516 215.456 47.1933 215.786 47.972C216.117 48.74 216.282 49.572 216.282 50.468C216.282 51.364 216.117 52.2013 215.786 52.98C215.456 53.748 214.992 54.42 214.394 54.996C213.808 55.572 213.104 56.0253 212.282 56.356C211.461 56.676 210.565 56.836 209.594 56.836C208.613 56.836 207.712 56.676 206.89 56.356C206.08 56.0253 205.381 55.572 204.794 54.996C204.208 54.42 203.749 53.748 203.418 52.98C203.088 52.2013 202.922 51.364 202.922 50.468Z" fill="black"/>
<ellipse cx="46.0035" cy="29" rx="30.8768" ry="24.5" fill="#2671E1"/>
<ellipse cx="46.0035" cy="67" rx="30.8768" ry="24.5" fill="#2671E1"/>
<g filter="url(#filter0_d)">
<rect x="4" width="25.5915" height="93" rx="12.7958" fill="#2671E1"/>
<rect x="6" y="2" width="21.5915" height="89" rx="10.7958" stroke="black" stroke-width="4"/>
</g>
<path d="M217.842 15.1041L225.979 18.2291L234.115 15.1041V32.8125C234.115 33.9583 232.989 34.8958 231.612 34.8958H220.346C218.969 34.8958 217.842 33.9583 217.842 32.8125V15.1041Z" fill="#F44336"/>
<defs>
<filter id="filter0_d" x="0" y="0" width="33.5915" height="101" filterUnits="userSpaceOnUse" color-interpolation-filters="sRGB">
<feFlood flood-opacity="0" result="BackgroundImageFix"/>
<feColorMatrix in="SourceAlpha" type="matrix" values="0 0 0 0 0 0 0 0 0 0 0 0 0 0 0 0 0 0 127 0"/>
<feOffset dy="4"/>
<feGaussianBlur stdDeviation="2"/>
<feColorMatrix type="matrix" values="0 0 0 0 0 0 0 0 0 0 0 0 0 0 0 0 0 0 0.25 0"/>
<feBlend mode="normal" in2="BackgroundImageFix" result="effect1_dropShadow"/>
<feBlend mode="normal" in="SourceGraphic" in2="effect1_dropShadow" result="shape"/>
</filter>
</defs>
</svg>
