<svg width="685" height="687" viewBox="0 0 685 687" fill="none" xmlns="http://www.w3.org/2000/svg">
<path fill-rule="evenodd" clip-rule="evenodd" d="M351.997 52.2944C410.265 68.241 457.879 98.8609 509.318 128.617C565.372 161.043 636.099 179.406 665.748 233.792C697.102 291.304 684.091 359.123 669.247 421.973C652.89 491.228 633.727 563.44 576.627 611.137C516.143 661.662 433.776 686.197 351.997 686.982C269.651 687.773 188.565 662.317 123.925 615.485C60.9495 569.86 7.19286 505.599 0.365045 432.227C-5.99116 363.922 72.5342 315.866 89.8377 249.178C109.766 172.372 41.0897 68.6918 107.664 18.6938C173 -30.3736 271.098 30.1541 351.997 52.2944Z" fill="#313131"/>
<circle cx="159" cy="74" r="3" fill="white"/>
<circle cx="226" cy="50" r="3" fill="white"/>
<circle cx="209" cy="138" r="3" fill="white"/>
<circle cx="294" cy="86" r="3" fill="white"/>
<circle cx="127" cy="161" r="3" fill="white"/>
<circle cx="251" cy="77" r="3" fill="white"/>
<circle cx="259" cy="107" r="3" fill="white"/>
<circle cx="176" cy="155" r="3" fill="white"/>
<circle cx="229" cy="113" r="3" fill="white"/>
<circle cx="110" cy="68" r="3" fill="white"/>
<circle cx="262" cy="50" r="3" fill="white"/>
<circle cx="116" cy="116" r="3" fill="white"/>
<circle cx="192" cy="80" r="3" fill="white"/>
<circle cx="192" cy="27" r="3" fill="white"/>
<circle cx="167" cy="116" r="3" fill="white"/>
<circle cx="145" cy="33" r="3" fill="white"/>
<path d="M380 242C414.242 242 442 215.809 442 183.5C442 151.191 414.242 125 380 125C345.758 125 318 151.191 318 183.5C318 215.809 345.758 242 380 242Z" fill="#F9F2B3" fill-opacity="0.71"/>
<path fill-rule="evenodd" clip-rule="evenodd" d="M533.228 282.118C536.623 278.061 538.921 273.09 538.537 267.519C537.431 251.469 515.48 255 511.21 263.1C506.94 271.201 507.448 291.75 512.966 293.198C515.167 293.775 519.855 292.361 524.627 289.433L521.632 311H539.316L533.228 282.118Z" fill="#B28B67"/>
<path fill-rule="evenodd" clip-rule="evenodd" d="M503.376 251.87C503.742 250.56 504.727 249.438 506.054 249.106C506.376 249.025 506.709 248.992 507.04 249.006C507.159 249.011 507.192 249.045 507.248 248.961C507.289 248.898 507.29 248.745 507.307 248.671C507.36 248.442 507.425 248.216 507.507 247.996C507.785 247.244 508.251 246.578 508.814 246.018C509.867 244.969 511.289 244.246 512.766 244.115C513.575 244.043 514.377 244.177 515.142 244.445C515.538 244.583 515.921 244.756 516.295 244.947C516.408 245.004 516.773 245.285 516.886 245.267C517.011 245.247 517.261 244.932 517.363 244.852C518.616 243.873 520.164 243.488 521.726 243.5C523.489 243.514 525.186 243.603 526.656 244.697C526.967 244.928 527.263 245.182 527.545 245.449C527.694 245.589 527.838 245.735 527.975 245.887C528.058 245.979 528.139 246.072 528.216 246.168C528.348 246.332 528.327 246.385 528.511 246.271C529.219 245.834 530.038 245.629 530.864 245.733C531.354 245.794 531.832 245.944 532.284 246.141C532.439 246.208 532.796 246.476 532.96 246.479C533.123 246.481 533.475 246.233 533.643 246.17C534.55 245.829 535.528 245.745 536.482 245.902C537.465 246.065 538.432 246.464 539.265 247.016C539.666 247.282 540.016 247.576 540.296 247.971C540.418 248.141 540.527 248.322 540.665 248.48C540.745 248.572 540.905 248.667 540.948 248.784C540.922 248.714 542.024 248.282 542.128 248.254C542.681 248.107 543.245 248.137 543.788 248.319C544.807 248.66 545.684 249.426 546.405 250.212C546.775 250.615 547.099 251.061 547.374 251.536C547.506 251.763 547.626 251.998 547.737 252.237C547.79 252.352 547.826 252.497 547.896 252.602C547.987 252.736 548.048 252.738 548.212 252.797C549.046 253.095 549.807 253.598 550.387 254.279C550.973 254.968 551.353 255.816 551.512 256.709C551.522 256.761 551.527 256.979 551.558 257.008C551.599 257.047 551.767 257.03 551.83 257.037C552.05 257.063 552.268 257.103 552.484 257.154C552.881 257.25 553.267 257.391 553.633 257.575C555.058 258.293 556.077 259.638 556.576 261.152C557.099 262.741 557.09 264.561 556.464 266.12C556.363 266.372 556.243 266.617 556.102 266.848C556.015 266.99 555.987 266.99 556.044 267.139C556.106 267.305 556.221 267.466 556.295 267.628C556.539 268.156 556.709 268.716 556.816 269.289C556.992 270.228 557.079 271.214 556.906 272.16C556.825 272.599 556.684 273.029 556.47 273.42C556.361 273.62 556.233 273.809 556.088 273.984C556.013 274.075 555.933 274.161 555.85 274.245C555.802 274.292 555.74 274.334 555.7 274.387C555.601 274.516 555.58 274.41 555.631 274.6C555.702 274.865 555.864 275.127 555.963 275.385C556.065 275.652 556.157 275.922 556.241 276.194C556.412 276.746 556.557 277.308 556.647 277.88C556.82 278.977 556.79 280.146 556.28 281.154C556.062 281.584 555.749 281.962 555.369 282.256C555.184 282.4 554.983 282.524 554.772 282.626C554.663 282.678 554.525 282.701 554.475 282.808C554.422 282.922 554.501 283.15 554.519 283.279C554.676 284.395 554.755 285.567 554.429 286.661C554.128 287.668 553.467 288.558 552.609 289.146C550.944 290.289 548.7 290.224 546.95 289.31C546.494 289.071 546.068 288.775 545.687 288.426C544.718 289.754 542.724 289.712 541.307 289.334C539.543 288.862 538.127 287.613 537.311 285.973C536.195 287.355 533.854 286.906 533.081 285.407C532.891 285.04 532.779 284.635 532.724 284.226C532.695 284.011 532.713 283.794 532.691 283.58C532.664 283.308 532.485 283.044 532.382 282.78C532.182 282.268 532.058 281.739 532.053 281.187C532.05 280.898 532.086 280.617 532.113 280.331C532.137 280.073 532.067 279.833 532.027 279.579C532.48 279.655 533.031 279.531 533.458 279.397C533.876 279.266 534.268 278.921 534.563 278.605C535.249 277.873 535.668 276.914 535.954 275.958C536.583 273.862 536.326 271.347 534.254 270.196C533.289 269.66 530.398 269.662 529.248 269.927C528.039 270.205 526.669 272.92 526.602 273.175C526.56 273.333 526.581 273.528 526.439 273.633C526.125 273.865 525.609 273.463 525.378 273.265C524.979 272.923 524.695 272.468 524.449 272.007C523.912 271.002 523.479 269.925 523.174 268.825C522.938 267.977 522.788 267.102 522.48 266.276C522.173 265.453 521.69 264.718 520.939 264.253C520.122 263.746 519.186 263.479 518.289 263.16C517.4 262.845 516.526 262.459 515.837 261.789C515.686 261.642 515.538 261.486 515.416 261.312C515.32 261.175 515.225 260.913 515.078 260.826C514.85 260.691 514.517 261.043 514.32 261.17C513.347 261.799 512.536 262.676 511.881 263.634C511.23 264.588 510.696 265.505 510.262 266.569C509.94 267.358 509.739 268.369 509.172 269.016C508.919 269.305 507.04 269.479 506.431 269.227C505.823 268.975 505.14 268.32 504.936 267.91C504.727 267.49 504.677 267.029 504.766 266.569C504.819 266.298 504.926 266.046 504.985 265.78C505.034 265.557 505.079 265.346 505.186 265.141C505.388 264.754 505.734 264.476 506.15 264.359C505.717 263.952 505.357 263.465 505.109 262.921C504.85 262.356 504.631 261.668 504.569 261.047C504.519 260.543 504.597 260.021 504.868 259.588C505.152 259.133 505.656 258.837 506.092 258.553C505.426 258.023 504.856 257.378 504.388 256.664C503.477 255.276 502.913 253.526 503.376 251.87Z" fill="#191847"/>
<path fill-rule="evenodd" clip-rule="evenodd" d="M588.684 404.75H503.947C497.436 404.75 492.158 410.123 492.158 416.75V485.75C492.158 492.377 497.436 497.75 503.947 497.75H588.684C595.195 497.75 600.474 492.377 600.474 485.75V416.75C600.474 410.123 595.195 404.75 588.684 404.75ZM576.895 425.75C578.522 425.75 579.842 427.093 579.842 428.75V473.75C579.842 475.407 578.522 476.75 576.895 476.75H515.737C514.109 476.75 512.789 475.407 512.789 473.75V428.75C512.789 427.093 514.109 425.75 515.737 425.75H576.895Z" fill="#C5CFD6"/>
<path fill-rule="evenodd" clip-rule="evenodd" d="M439.467 495.245C448.908 473.976 455.736 455.456 458.476 445.685C463.169 428.954 466.739 414.232 467.641 408.735C469.792 395.624 451.09 394.861 448.618 401.376C444.876 411.238 438.344 443.639 430.496 492.581L439.467 495.245ZM548.977 428.498C540.315 425.013 509.981 414.106 495.351 411.021C491.146 410.134 487.072 409.311 483.241 408.566C471.854 406.354 465.954 427.263 476.921 428.87C504.234 432.871 542.954 437.002 546.267 437.466C550.912 438.116 554.421 430.688 548.977 428.498Z" fill="#B28B67"/>
<path fill-rule="evenodd" clip-rule="evenodd" d="M476.252 402.812L523.105 378.535V373.25H517.533C472.204 385.007 449.041 392.541 448.044 395.853C448.033 395.889 448.024 395.925 448.015 395.96C447.992 395.991 447.969 396.022 447.947 396.052C438.964 408.628 433.584 470.02 431.818 474.617L449.032 477.231C455.617 452.377 476.684 435.064 476.125 405.297C476.276 404.424 476.314 403.596 476.252 402.812Z" fill="#1F28CF"/>
<path fill-rule="evenodd" clip-rule="evenodd" d="M519.212 417.23C523.499 416.357 527.447 415.577 530.825 414.974C552.646 411.079 559.009 399.19 555.247 373.25H515.043C508.476 375.17 474.345 389.739 456.637 397.487C444.917 402.616 448.612 421.103 455.249 425.915C455.285 426.21 455.404 426.41 455.617 426.5C491.32 441.562 519.565 433.659 529 436.184L533.364 422.171L519.212 417.23Z" fill="#2B44FF"/>
<path fill-rule="evenodd" clip-rule="evenodd" d="M546.004 426.302C548.345 426.549 550.008 426.92 550.991 427.416C552.186 428.019 553.834 429.101 555.934 430.662C555.259 432.068 549.191 444.703 537.731 468.568C534.045 467.932 532.584 466.488 533.347 464.237C534.11 461.985 534.725 460.106 535.193 458.598L535.905 437.071C535.918 436.656 536.259 436.335 536.666 436.353C536.673 436.353 536.68 436.353 536.687 436.354L539.941 436.589C541.789 435.08 543.008 433.712 543.598 432.483C544.077 431.485 544.341 429.907 544.391 427.747L544.391 427.747C544.409 426.918 545.085 426.268 545.899 426.294C545.934 426.295 545.969 426.298 546.004 426.302Z" fill="#E4E4E4"/>
<path fill-rule="evenodd" clip-rule="evenodd" d="M443.763 491.301C444.588 493.541 445 495.217 445 496.329C445 497.682 444.779 499.655 444.336 502.25C442.794 502.25 428.941 502.25 402.777 502.25C401.697 498.616 402.32 496.654 404.647 496.364C406.974 496.074 408.907 495.813 410.446 495.579L429.762 486.814C430.134 486.645 430.569 486.815 430.735 487.194C430.738 487.2 430.741 487.207 430.743 487.213L431.985 490.279C434.139 491.302 435.889 491.813 437.236 491.813C438.33 491.813 439.841 491.364 441.769 490.464L441.769 490.464C442.509 490.119 443.384 490.449 443.723 491.203C443.738 491.235 443.751 491.268 443.763 491.301Z" fill="#E4E4E4"/>
<path fill-rule="evenodd" clip-rule="evenodd" d="M480.336 361.342L459.463 382.068C453.389 384.705 448.413 387.617 444.534 390.803C443.662 391.874 442.712 393.926 446.816 393.008C450.921 392.09 455.278 391.312 456.05 392.67C456.821 394.029 454.548 396.111 455.974 397.889C456.924 399.074 460.121 395.304 465.563 386.577L487.269 373.552L480.336 361.342ZM572.984 364.265L557.586 364.327C567.093 395.567 572.226 412.143 572.984 414.054C574.689 418.355 571.081 424.905 569.538 428.425C574.563 430.714 574.028 422.238 580.367 425.24C586.153 427.98 590.555 432.944 597.24 428.746C598.062 428.23 598.962 426.286 596.786 424.767C591.365 420.983 583.552 414.361 582.496 412.181C581.057 409.209 577.886 393.237 572.984 364.265Z" fill="#B28B67"/>
<path fill-rule="evenodd" clip-rule="evenodd" d="M529.225 298.499L522.853 297.387C511.884 325.279 492.731 350.623 465.397 373.419L486.052 398.961C513.383 366.503 530.23 333.016 529.225 298.499Z" fill="#191847"/>
<path fill-rule="evenodd" clip-rule="evenodd" d="M557 380H500.263C513.408 347.469 519.98 319.834 519.98 297.096L537.095 294.5C550.545 316.519 554.344 343.628 557 380Z" fill="#DDE3E9"/>
<path fill-rule="evenodd" clip-rule="evenodd" d="M537.457 294.512C537.455 294.508 537.453 294.504 537.45 294.5H536.333C534.997 294.547 532.96 294.631 530.225 294.753L526.089 306.783C525.652 321.449 523.097 351.007 518.426 395.454H555.618C555.52 398.524 555.359 401.623 555.135 404.75H582.79C578.653 357.248 563.547 320.498 537.471 294.5L537.457 294.512V294.512Z" fill="#2F3676"/>
<path fill-rule="evenodd" clip-rule="evenodd" d="M553.161 356.175C552.103 375.311 549.452 388.503 545.211 395.75H555.608C556.063 381.982 555.248 368.79 553.161 356.175V356.175Z" fill="black" fill-opacity="0.1"/>
<path fill-rule="evenodd" clip-rule="evenodd" d="M547.339 372.5L529 363.822V372.5H547.339Z" fill="white" fill-opacity="0.2"/>
<path fill-rule="evenodd" clip-rule="evenodd" d="M206.772 279.221C203.377 274.939 201.079 269.692 201.463 263.812C202.569 246.87 224.52 250.597 228.79 259.148C233.06 267.699 232.552 289.389 227.034 290.917C224.833 291.526 220.145 290.033 215.373 286.943L218.368 309.708H200.684L206.772 279.221Z" fill="#B28B67"/>
<path fill-rule="evenodd" clip-rule="evenodd" d="M218.71 249.293C216.379 248.882 210.104 248.6 208.946 248.6C208.207 248.6 207.405 248.781 206.967 248.052C206.609 247.454 206.74 246.444 206.633 245.75C206.509 244.945 206.332 244.15 206.154 243.357C205.645 241.1 204.877 238.953 203.802 236.937C201.784 233.156 198.828 230.193 195.096 228.47C190.976 226.566 186.313 226.131 181.88 226.517C177.137 226.93 172.843 228.612 168.365 230.195C164.097 231.704 159.627 232.298 155.163 231.561C150.666 230.819 147.268 228.2 143.475 225.714C139.591 223.17 135.154 221.505 130.563 221.888C126.277 222.245 122.328 224.146 118.784 226.686C115.469 229.062 112.733 231.921 111.189 235.944C109.527 240.272 109.529 245.023 112.261 248.848C116.221 254.392 123.573 255.826 129.69 255.683C133.228 255.601 136.703 254.907 140.043 253.645C144.498 251.961 148.347 249.108 152.515 246.793C154.47 245.707 156.492 244.815 158.611 244.172C160.667 243.548 162.692 243.262 164.554 244.596C166.524 246.008 168.288 247.395 170.541 248.279C172.703 249.127 174.992 249.601 177.295 249.582C181.776 249.545 186.192 248.045 190.544 247.04C194.093 246.221 197.89 245.405 201.507 246.192C203.017 246.521 205.222 247.199 205.767 248.885C196.59 250.672 192.986 262.866 195.573 271.817C196.969 276.648 205.363 282.296 208.626 279.756C210.694 278.147 209.439 276.035 208.626 274.64C207.071 271.97 206.538 268.539 209.417 266.68C211.9 265.076 214.511 268.884 214.56 268.88C215.242 268.822 221.139 265.239 225.202 260.011C229.21 260.266 229.818 257.427 228.861 255.105C227.904 252.783 221.93 249.86 218.71 249.293Z" fill="#191847"/>
<path fill-rule="evenodd" clip-rule="evenodd" d="M186.422 375.417C187.751 394.899 273.342 452.259 273.841 453.868C274.063 454.583 265.183 477.194 247.2 521.699L254.682 524.823C282.265 477.688 295.348 451.61 293.931 446.588C291.902 439.397 269.766 415.742 227.522 375.624L186.422 375.417Z" fill="#B28B67"/>
<path fill-rule="evenodd" clip-rule="evenodd" d="M249.169 511.648L261.384 516.426C287.142 485.201 297.239 459.437 295.398 446.31C294.171 437.558 272.111 413.943 229.218 375.464L185.546 375.464C187.036 420.583 266.368 454.04 267.43 455.962C268.491 457.885 258.048 476.716 249.169 511.648Z" fill="#2F3676"/>
<path fill-rule="evenodd" clip-rule="evenodd" d="M244.569 519.833C243.02 521.547 242.051 522.91 241.665 523.923C241.194 525.155 240.715 527.041 240.227 529.581C241.669 530.193 254.628 535.689 279.104 546.071C281.378 543.188 281.477 541.153 279.401 539.966C277.325 538.779 275.608 537.774 274.249 536.95L259.227 521.3C258.938 520.999 258.472 520.981 258.185 521.26C258.18 521.265 258.175 521.27 258.171 521.275L255.943 523.575C253.573 523.652 251.757 523.424 250.497 522.89C249.474 522.455 248.217 521.446 246.726 519.861L246.726 519.861C246.154 519.253 245.221 519.207 244.642 519.759C244.617 519.783 244.593 519.808 244.569 519.833Z" fill="#E4E4E4"/>
<path fill-rule="evenodd" clip-rule="evenodd" d="M196.263 375.417L158.135 473.763L120.66 556.907H129.502L226.233 375.417H196.263Z" fill="#997659"/>
<path fill-rule="evenodd" clip-rule="evenodd" d="M120.131 553.068C119.307 555.433 118.895 557.202 118.895 558.375C118.895 559.803 119.116 561.886 119.559 564.625C121.1 564.625 134.953 564.625 161.118 564.625C162.198 560.789 161.575 558.718 159.248 558.412C156.921 558.106 154.988 557.83 153.449 557.584L134.133 548.332C133.761 548.154 133.325 548.333 133.16 548.732C133.157 548.739 133.154 548.746 133.151 548.753L131.91 551.989C129.756 553.069 128.005 553.609 126.659 553.609C125.564 553.609 124.053 553.134 122.125 552.184L122.125 552.184C121.386 551.82 120.511 552.169 120.172 552.964C120.157 552.998 120.144 553.033 120.131 553.068Z" fill="#E4E4E4"/>
<path fill-rule="evenodd" clip-rule="evenodd" d="M124.044 539.634L143.69 543.593C158.88 519.599 222.451 421.216 229.421 375.417H185.685C162.409 408.525 138.523 515.244 124.044 539.634Z" fill="#5C63AB"/>
<path fill-rule="evenodd" clip-rule="evenodd" d="M262.579 353.739L289.278 341.141C293.955 336.133 298.471 332.328 302.827 329.723C304.13 329.278 306.355 329.143 303.981 332.869C301.607 336.594 299.265 340.628 300.214 341.933C301.163 343.239 303.91 341.798 304.996 343.921C305.72 345.337 301.088 347.03 291.1 349.001L271.104 365.473L262.579 353.739ZM154.638 357.208L169.737 360.427C154.552 390.831 146.409 406.945 145.307 408.77C142.827 412.874 145.141 420.397 145.995 424.358C140.635 425.699 142.749 417.031 135.965 418.841C129.773 420.493 124.524 424.732 118.75 419.014C118.04 418.311 117.521 416.114 119.941 414.987C125.97 412.179 134.878 406.922 136.323 404.881C138.292 402.098 144.397 386.207 154.638 357.208Z" fill="#B28B67"/>
<path fill-rule="evenodd" clip-rule="evenodd" d="M210.775 296.513L217.147 295.339C231.025 309.803 236.688 344.552 245.937 349.151C254.681 353.5 267.076 349.292 281.81 343.609L286.323 354.441C272.935 370.002 244.415 383.149 232.855 375.644C214.372 363.644 210.105 320.787 210.775 296.513Z" fill="#DB2721"/>
<path fill-rule="evenodd" clip-rule="evenodd" d="M183 382.542C208.548 382.542 227.34 382.542 239.377 382.542C241.953 382.542 241.468 378.545 241.095 376.528C236.797 353.253 220.02 328.163 220.02 295.031L203.758 292.292C190.308 315.534 185.656 344.149 183 382.542Z" fill="#DDE3E9"/>
<path fill-rule="evenodd" clip-rule="evenodd" d="M177.377 358.976C165.884 381.25 156.224 397.285 148.396 407.083L136.579 404.597C144.191 353.876 166.234 316.441 202.709 292.292H205.644L209.148 292.292C223.746 345.758 227.771 381.383 221.221 399.167H170.473C171.276 386.154 173.851 372.393 177.377 358.976H177.377Z" fill="#FF4133"/>
</svg>
